<?xml version="1.0" encoding="UTF-8" standalone="no"?>
<svg
   xmlns:dc="http://purl.org/dc/elements/1.1/"
   xmlns:cc="http://creativecommons.org/ns#"
   xmlns:rdf="http://www.w3.org/1999/02/22-rdf-syntax-ns#"
   xmlns:svg="http://www.w3.org/2000/svg"
   xmlns="http://www.w3.org/2000/svg"
   xmlns:sodipodi="http://sodipodi.sourceforge.net/DTD/sodipodi-0.dtd"
   xmlns:inkscape="http://www.inkscape.org/namespaces/inkscape"
   version="1.1"
   id="svg2"
   xml:space="preserve"
   width="280.02667"
   height="22.613333"
   viewBox="0 0 280.02667 22.613333"
   sodipodi:docname="Petar Milutinovic LOGO v1.eps"><metadata
     id="metadata8"><rdf:RDF><cc:Work
         rdf:about=""><dc:format>image/svg+xml</dc:format><dc:type
           rdf:resource="http://purl.org/dc/dcmitype/StillImage" /></cc:Work></rdf:RDF></metadata><defs
     id="defs6" /><sodipodi:namedview
     pagecolor="#ffffff"
     bordercolor="#666666"
     borderopacity="1"
     objecttolerance="10"
     gridtolerance="10"
     guidetolerance="10"
     inkscape:pageopacity="0"
     inkscape:pageshadow="2"
     inkscape:window-width="640"
     inkscape:window-height="480"
     id="namedview4" /><g
     id="g10"
     inkscape:groupmode="layer"
     inkscape:label="ink_ext_XXXXXX"
     transform="matrix(1.3333333,0,0,-1.3333333,0,22.613333)"><g
       id="g12"
       transform="scale(0.1)"><path
         d="m 16.8008,90.1211 h 86.1642 c 3.515,0 7.113,0.0391 10.801,0.125 3.675,0.0781 7.32,0.4766 10.918,1.1953 3.597,0.7227 7.078,1.7617 10.437,3.1211 3.359,1.3555 6.399,3.3984 9.121,6.1215 1.918,1.757 3.918,4.476 6,8.16 2.078,3.676 3.121,8.554 3.121,14.636 0,0.965 -0.121,2.481 -0.359,4.563 -0.238,2.074 -0.762,4.398 -1.563,6.957 -0.8,2.559 -2.003,5.16 -3.597,7.805 -1.606,2.64 -3.84,4.914 -6.723,6.84 -4.004,2.714 -8.316,4.398 -12.957,5.039 -4.644,0.632 -9.281,1.039 -13.922,1.199 H 16.8008 Z m 95.7622,79.4419 c 7.519,0 14.761,-0.52 21.718,-1.559 6.957,-1.047 13.563,-3.883 19.801,-8.52 1.918,-1.601 3.598,-3.16 5.039,-4.683 1.442,-1.52 2.402,-2.68 2.883,-3.477 1.594,-2.082 3.48,-5.484 5.637,-10.199 2.164,-4.723 3.242,-10.68 3.242,-17.883 0,-1.762 -0.16,-4.043 -0.485,-6.84 -0.32,-2.804 -1.039,-5.879 -2.156,-9.238 -1.125,-3.359 -2.844,-6.801 -5.16,-10.3242 -2.32,-3.5195 -5.484,-6.8007 -9.477,-9.8359 -3.207,-2.5664 -6.64,-4.5625 -10.324,-6.0039 -3.679,-1.4375 -7.441,-2.5195 -11.277,-3.2344 -3.84,-0.7226 -7.723,-1.2031 -11.645,-1.4414 -3.918,-0.2383 -7.796,-0.3633 -11.636,-0.3633 H 16.8008 V 0.121094 H 0 V 169.563 h 112.563"
         style="fill:#231f20;fill-opacity:1;fill-rule:nonzero;stroke:none"
         id="path14" /><path
         d="M 432.398,169.32 V 155.402 H 286.719 V 95.8828 H 421.355 V 81.7227 H 286.719 V 14.2813 h 142.64 V 0.121094 H 270.16 V 169.32 h 162.238"
         style="fill:#231f20;fill-opacity:1;fill-rule:nonzero;stroke:none"
         id="path16" /><path
         d="M 695.277,169.563 V 155.641 H 622.559 V 0.121094 H 605.996 V 155.641 h -76.078 v 13.922 h 165.359"
         style="fill:#231f20;fill-opacity:1;fill-rule:nonzero;stroke:none"
         id="path18" /><path
         d="M 868.473,169.563 H 850.234 L 766.715,0.121094 h 17.039 L 859.355,154.445 936.391,0.121094 H 953.91 L 868.473,169.563"
         style="fill:#231f20;fill-opacity:1;fill-rule:nonzero;stroke:none"
         id="path20" /><path
         d="m 1071.83,89.8828 h 90.81 c 1.92,0 3.75,0 5.5,0 1.92,0 3.84,0.0781 5.76,0.2383 3.51,0.1562 6.98,0.4805 10.42,0.9648 3.43,0.4766 6.71,1.3555 9.83,2.6368 3.11,1.2773 5.98,3 8.62,5.1601 2.63,2.1562 4.83,5.0002 6.59,8.5192 0.64,1.282 1.43,3.36 2.39,6.243 0.96,2.878 1.44,6.238 1.44,10.078 0,0.961 -0.12,2.519 -0.36,4.679 -0.24,2.161 -0.8,4.481 -1.67,6.961 -0.88,2.481 -2.2,5.039 -3.96,7.68 -1.76,2.641 -4.07,4.922 -6.95,6.84 -4.15,2.719 -8.54,4.32 -13.17,4.801 -4.64,0.476 -9.35,0.718 -14.14,0.718 H 1071.83 Z M 1238.87,0.121094 h -22.78 L 1149.23,75.7227 h -77.4 V 0.121094 h -16.56 V 169.563 h 117.12 c 2.08,0 4.08,0 6,0 2.08,0 4.16,-0.086 6.24,-0.243 1.76,0 4.2,-0.16 7.32,-0.476 3.12,-0.324 6.52,-1.125 10.2,-2.403 3.68,-1.281 7.4,-3.238 11.16,-5.878 3.76,-2.641 7.16,-6.204 10.2,-10.68 1.76,-2.723 3.12,-5.399 4.08,-8.043 0.96,-2.637 1.68,-5.16 2.16,-7.559 0.48,-2.402 0.8,-4.597 0.96,-6.601 0.16,-2 0.24,-3.559 0.24,-4.676 0,-1.762 -0.16,-4.082 -0.48,-6.965 -0.32,-2.875 -1.04,-5.996 -2.15,-9.359 -1.12,-3.36 -2.84,-6.8011 -5.16,-10.3167 -2.32,-3.5195 -5.47,-6.8008 -9.46,-9.8399 -6.39,-4.6445 -13.26,-7.5234 -20.61,-8.6406 -7.35,-1.1211 -14.78,-1.8437 -22.29,-2.1601 l 68.07,-75.601606"
         style="fill:#231f20;fill-opacity:1;fill-rule:nonzero;stroke:none"
         id="path22" /><path
         d="m 1360.55,14.1602 h 54 c 5.76,0 11.6,0.1211 17.52,0.3632 5.91,0.2383 11.76,0.918 17.51,2.0352 5.77,1.1172 11.29,2.8398 16.57,5.1602 5.28,2.3203 10.15,5.5585 14.64,9.7226 2.24,2.0742 4.52,4.6758 6.84,7.7969 2.32,3.1211 4.4,6.7578 6.24,10.9219 1.83,4.1562 3.32,8.9609 4.44,14.4023 1.11,5.4336 1.68,11.6719 1.68,18.7188 0,7.1992 -0.76,14.2382 -2.28,21.1167 -1.52,6.883 -3.93,13.321 -7.2,19.325 -3.28,6 -7.48,11.316 -12.6,15.957 -5.13,4.636 -11.28,8.32 -18.48,11.039 -5.61,2.078 -10.72,3.363 -15.36,3.844 -4.65,0.476 -9.84,0.792 -15.6,0.957 h -67.92 z m 68.16,155.2778 c 2.55,0 5.04,0 7.44,0 2.56,0 5.11,-0.161 7.68,-0.477 8.47,-0.641 16.36,-2.242 23.64,-4.801 7.28,-2.562 14.28,-6.64 21,-12.242 6.88,-5.598 12.24,-11.801 16.08,-18.598 3.84,-6.8 6.72,-13.402 8.64,-19.8 1.92,-6.399 3.07,-12.239 3.48,-17.52 0.4,-5.2812 0.6,-9.2031 0.6,-11.7617 0,-2.0781 -0.17,-5.5625 -0.48,-10.4375 -0.33,-4.8867 -1.29,-10.2031 -2.88,-15.957 -2.88,-10.7227 -7.68,-20.4454 -14.4,-29.1602 -6.72,-8.7266 -15.2,-15.4063 -25.44,-20.04688 -8.64,-3.99609 -17.4,-6.39844 -26.28,-7.19531 -8.88,-0.800785 -17.88,-1.28516 -27,-1.44141 h -76.8 v 169.438 h 84.72"
         style="fill:#de293e;fill-opacity:1;fill-rule:nonzero;stroke:none"
         id="path24" /><path
         d="M 1812.22,169.199 V 155.277 H 1666.54 V 95.7617 h 134.64 V 81.6016 H 1666.54 V 14.1602 h 152.64 V 0 h -169.19 v 169.199 h 162.23"
         style="fill:#de293e;fill-opacity:1;fill-rule:nonzero;stroke:none"
         id="path26" /><path
         d="M 2100.22,169.438 2021.74,0 h -15.84 l -79.92,169.438 h 18.24 l 70.08,-151.6802 67.92,151.6802 h 18"
         style="fill:#de293e;fill-opacity:1;fill-rule:nonzero;stroke:none"
         id="path28" /></g></g></svg>
